PathFileType	4	(X/Y/Z)	/Users/itak/Documents/Research/Walk-IL/dataset/trc/00047_00004.trc
DataRate	CameraRate	NumFrames	NumMarkers	Units	OrigDataRate	OrigDataStartFrame	OrigNumFrames
100.000000	100.000000	4	53	mm	100.000000	256	512
Frame#	Time	RPSI			LPSI			L3			STRN			T10			C7			CLAV			RBAK			LBAK			LSHO			LUPA			LAEL			LAOL			LWTS			LWPS			LFRA			LIFD			LHPS			LHTS			RSHO			RUPA			RAEL			RAOL			RWTS			RWPS			RFRA			RIFD			RHTS			RHPS			RBHD			LFHD			RFHD			LBHD			LHIP			RHIP			RASI			LASI			LKNE			LTHI			LANK			LTIP			LTOE			LMT1			LMT5			LHEE			RKNE			RTHI			RANK			RTIP			RTOE			RMT1			RMT5			RHEE			
		X1	Y1	Z1	X2	Y2	Z2	X3	Y3	Z3	X4	Y4	Z4	X5	Y5	Z5	X6	Y6	Z6	X7	Y7	Z7	X8	Y8	Z8	X9	Y9	Z9	X10	Y10	Z10	X11	Y11	Z11	X12	Y12	Z12	X13	Y13	Z13	X14	Y14	Z14	X15	Y15	Z15	X16	Y16	Z16	X17	Y17	Z17	X18	Y18	Z18	X19	Y19	Z19	X20	Y20	Z20	X21	Y21	Z21	X22	Y22	Z22	X23	Y23	Z23	X24	Y24	Z24	X25	Y25	Z25	X26	Y26	Z26	X27	Y27	Z27	X28	Y28	Z28	X29	Y29	Z29	X30	Y30	Z30	X31	Y31	Z31	X32	Y32	Z32	X33	Y33	Z33	X34	Y34	Z34	X35	Y35	Z35	X36	Y36	Z36	X37	Y37	Z37	X38	Y38	Z38	X39	Y39	Z39	X40	Y40	Z40	X41	Y41	Z41	X42	Y42	Z42	X43	Y43	Z43	X44	Y44	Z44	X45	Y45	Z45	X46	Y46	Z46	X47	Y47	Z47	X48	Y48	Z48	X49	Y49	Z49	X50	Y50	Z50	X51	Y51	Z51	X52	Y52	Z52	X53	Y53	Z53	

257	2.56	-559.327392578125	1059.133544921875	331.0418090820312	-504.7655639648438	1058.104736328125	176.6500396728516	-533.3784790039062	1117.876831054688	246.4410858154297	-324.6607666015625	1306.879516601562	342.5628051757812	-551.4157104492188	1262.60498046875	237.9073333740234	-496.7568054199219	1528.400756835938	252.9145965576172	-358.8002319335938	1434.196044921875	324.6347351074219	-579.2933959960938	1391.552001953125	301.5180358886719	-472.581787109375	1489.861572265625	156.679931640625	-349.1213073730469	1495.966674804688	133.6433410644531	-348.1557312011719	1373.063720703125	45.83974075317383	-345.6476745605469	1158.681030273438	8.231270790100098	-429.9525146484375	1143.926391601562	69.44920349121094	-284.0712280273438	903.8524169921875	83.07056427001953	-338.5979309082031	891.0391845703125	14.35020065307617	-331.4435119628906	1042.834716796875	2.159994840621948	-261.813232421875	720.4197387695312	105.3399963378906	-305.609375	801.8511962890625	24.73165893554688	-256.9298095703125	811.8405151367188	75.94294738769531	-503.744140625	1510.032592773438	444.1700134277344	-547.7542724609375	1440.263305664062	500.8660583496094	-594.2986450195312	1171.577270507812	510.0595703125	-553.8643798828125	1144.265258789062	423.3170471191406	-400.3887023925781	955.9981689453125	541.9588623046875	-474.9595336914062	919.1145629882812	582.6353759765625	-574.791259765625	1094.66943359375	533.89306640625	-325.07373046875	787.2076416015625	543.3141479492188	-342.4259033203125	862.6229858398438	573.0017700195312	-408.8161926269531	836.740234375	602.5336303710938	-372.8459777832031	1710.176879882812	229.6297607421875	-374.20703125	1716.268432617188	448.2020874023438	-293.4943542480469	1720.299926757812	392.8493347167969	-487.83837890625	1702.647338867188	316.3642883300781	-370.3295288085938	957.7709350585938	105.1667633056641	-491.3639526367188	934.154541015625	458.3587341308594	-369.96923828125	973.3168334960938	429.8304138183594	-292.9352416992188	1003.455261230469	210.4125213623047	-204.5762939453125	540.1895751953125	209.9669647216797	-255.7517547607422	666.1246948242188	146.8544464111328	-320.2500915527344	66.90635681152344	71.12026214599609	-275.3859252929688	313.1172485351562	114.4210739135742	-151.8250732421875	52.64766693115234	219.6542663574219	-212.1167602539062	57.79177093505859	210.4980316162109	-200.7077484130859	62.92459869384766	105.245002746582	-404.3514404296875	71.20616912841797	88.79335021972656	-464.4035339355469	503.1606750488281	357.2716369628906	-467.4396057128906	764.3272705078125	441.2883605957031	-576.6867065429688	43.96817779541016	213.4858856201172	-489.1474609375	382.8943481445312	324.71337890625	-346.4275817871094	42.01395416259766	263.5482482910156	-392.7341918945312	48.25640106201172	212.2959136962891	-448.9826049804688	40.75455093383789	291.2386474609375	-611.3038330078125	49.46855545043945	151.3388366699219	
258	2.57	-553.2116088867188	1058.348876953125	332.3880615234375	-496.672119140625	1057.354614257812	178.6698455810547	-526.12744140625	1117.040405273438	248.1350555419922	-318.688232421875	1306.141967773438	346.65283203125	-544.2701416015625	1261.836669921875	239.3868713378906	-489.8145751953125	1527.6435546875	255.0002593994141	-352.6279907226562	1433.444458007812	328.2592163085938	-572.8720703125	1390.806884765625	302.7296447753906	-464.6138000488281	1489.056396484375	159.045654296875	-340.9515991210938	1495.080688476562	137.3083343505859	-339.1087036132812	1372.124267578125	49.63180923461914	-336.5514526367188	1157.735961914062	12.10494136810303	-421.1794128417969	1143.031982421875	72.77440643310547	-275.6738891601562	902.8611450195312	87.24542999267578	-329.7095947265625	890.0899658203125	18.21503639221191	-322.3819580078125	1041.880981445312	6.086174011230469	-253.6927795410156	719.4539794921875	109.7161483764648	-296.9405212402344	800.8361206054688	28.79771995544434	-248.5874938964844	810.7832641601562	80.33762359619141	-498.9118041992188	1509.33544921875	446.1650390625	-543.438720703125	1439.58154296875	502.440673828125	-590.1171264648438	1170.870483398438	511.0613708496094	-548.762939453125	1143.582275390625	424.7637634277344	-396.0865478515625	955.710205078125	544.7781372070312	-471.1103210449219	918.7368774414062	584.7061157226562	-570.7752075195312	1093.954711914062	535.0616455078125	-320.502685546875	787.082763671875	546.8699951171875	-338.2016906738281	862.4996948242188	576.3751831054688	-404.7694396972656	836.4768676757812	605.3623657226562	-365.8876953125	1709.4609375	232.9354248046875	-369.318603515625	1715.54736328125	451.4552307128906	-288.149658203125	1719.711303710938	396.8702392578125	-481.7172546386719	1701.873291015625	318.5608825683594	-361.0204772949219	957.2638549804688	108.8069305419922	-487.0045471191406	933.4087524414062	460.6399841308594	-365.30908203125	972.4378051757812	433.6885070800781	-285.3622741699219	1002.78173828125	215.2829742431641	-194.3713531494141	541.570068359375	218.1374664306641	-245.3605804443359	666.5115356445312	153.4851837158203	-291.9267883300781	63.35553359985352	84.72052001953125	-255.8153991699219	311.6181335449219	124.7673950195312	-128.2650604248047	53.76050567626953	239.1258392333984	-188.3322906494141	57.97554016113281	227.8941650390625	-173.4521942138672	61.87648391723633	122.9474868774414	-376.620361328125	66.45986938476562	99.56553649902344	-461.829833984375	502.5250244140625	358.7112121582031	-463.5891418457031	763.569091796875	443.1916809082031	-576.6297607421875	44.3464469909668	213.3517150878906	-487.217529296875	382.4620666503906	325.7085876464844	-346.345947265625	41.9737663269043	263.5633850097656	-392.6861572265625	48.27924728393555	212.3079223632812	-448.9663391113281	40.73997116088867	291.24365234375	-611.246826171875	50.17902755737305	151.1851348876953	
259	2.58	-547.034423828125	1057.513916015625	333.7772521972656	-488.5700988769531	1056.539184570312	180.7357330322266	-518.8579711914062	1116.142700195312	249.8642272949219	-312.7151184082031	1305.341552734375	350.7724304199219	-537.0855712890625	1261.020751953125	240.9091491699219	-482.8265075683594	1526.833862304688	257.1293640136719	-346.4207763671875	1432.640869140625	331.9232788085938	-566.4052124023438	1390.01708984375	303.9759216308594	-456.6053161621094	1488.198486328125	161.4644165039062	-332.7313232421875	1494.129028320312	141.0356750488281	-330.0528869628906	1371.117309570312	53.49114990234375	-327.4874572753906	1156.723999023438	16.03915405273438	-412.4317626953125	1142.072387695312	76.17858123779297	-267.208251953125	901.832763671875	91.46494293212891	-320.8226013183594	889.07568359375	22.13996315002441	-313.3567810058594	1040.8642578125	10.06691455841064	-245.6199188232422	718.407958984375	114.1221008300781	-288.2670288085938	799.7504272460938	32.91638946533203	-240.2290191650391	809.6661987304688	84.76581573486328	-494.0341186523438	1508.582885742188	448.1831665039062	-539.0864868164062	1438.849853515625	504.0226135253906	-585.9959716796875	1170.122680664062	511.9872436523438	-543.6622924804688	1142.864501953125	426.1731872558594	-391.9673156738281	955.240234375	547.5859375	-467.4796142578125	918.223876953125	586.7302856445312	-566.8123779296875	1093.188354492188	536.1881103515625	-316.2200927734375	786.7200317382812	550.4122924804688	-334.2655944824219	862.1463623046875	579.7392578125	-400.9837036132812	836.0300903320312	608.1452026367188	-358.8590087890625	1708.656982421875	236.2789916992188	-364.3651733398438	1714.740844726562	454.7280578613281	-282.7362365722656	1719.035278320312	400.9071044921875	-475.5313415527344	1701.054077148438	320.79638671875	-351.749755859375	956.6968383789062	112.4697113037109	-482.57080078125	932.6510009765625	462.9363098144531	-360.5924377441406	971.5228881835938	437.5216369628906	-277.81396484375	1002.045471191406	220.1503143310547	-184.4737854003906	542.8339233398438	226.1065216064453	-235.2272338867188	666.7940063476562	160.0439453125	-264.2755737304688	60.34198760986328	99.11442565917969	-236.7281036376953	310.3059387207031	135.4570770263672	-105.4352722167969	54.89062118530273	258.868408203125	-165.1728363037109	58.26014709472656	245.6988830566406	-146.9856872558594	61.14544677734375	141.1561584472656	-349.3985900878906	62.32862854003906	111.2921524047852	-459.1571044921875	501.8951721191406	360.2281188964844	-459.6121520996094	762.8175048828125	445.1292419433594	-576.5409545898438	44.77184677124023	213.2145843505859	-485.140380859375	382.0353698730469	326.7503051757812	-346.2734985351562	41.93800354003906	263.5722961425781	-392.6481018066406	48.33271026611328	212.3132476806641	-448.9529113769531	40.73354339599609	291.2398986816406	-611.1517944335938	50.95458602905273	151.0304870605469	
260	2.59	-540.7850341796875	1056.639892578125	335.2178955078125	-480.4518432617188	1055.655151367188	182.8518371582031	-511.5635375976562	1115.184692382812	251.6305999755859	-306.7383728027344	1304.4814453125	354.918701171875	-529.857177734375	1260.159545898438	242.4771270751953	-475.7934265136719	1525.974365234375	259.3050842285156	-340.1736145019531	1431.789672851562	335.6258239746094	-559.8932495117188	1389.18359375	305.2611999511719	-448.5604248046875	1487.288452148438	163.9393463134766	-324.4617309570312	1493.11572265625	144.8243560791016	-320.9960021972656	1370.043579101562	57.41671752929688	-318.4573364257812	1155.646484375	20.03783798217773	-403.7103881835938	1141.046020507812	79.67363739013672	-258.6708984375	900.7612915039062	95.72290802001953	-311.9407958984375	887.99560546875	26.12249374389648	-304.3775634765625	1039.787719726562	14.10074806213379	-237.5606079101562	717.2793579101562	118.5457916259766	-279.5833435058594	798.6019287109375	37.079833984375	-231.8440551757812	808.4904174804688	89.21321105957031	-489.0956115722656	1507.77685546875	450.2330322265625	-534.7011108398438	1438.069702148438	505.6116333007812	-581.9168701171875	1169.336181640625	512.8558959960938	-538.5841674804688	1142.115356445312	427.5386352539062	-388.0237731933594	954.5951538085938	550.3883666992188	-464.0213012695312	917.5758056640625	588.7290649414062	-562.8973388671875	1092.37353515625	537.2793579101562	-312.1972045898438	786.1325073242188	553.93701171875	-330.6001892089844	861.5682983398438	583.09033203125	-397.4483337402344	835.4043579101562	610.8784790039062	-351.7637939453125	1707.768310546875	239.6605224609375	-359.3451843261719	1713.858154296875	458.0243530273438	-277.2456359863281	1718.27783203125	404.9585876464844	-469.2756042480469	1700.18603515625	323.0780334472656	-342.5239562988281	956.0570678710938	116.1737823486328	-478.0465393066406	931.8970336914062	465.2572326660156	-355.7747192382812	970.5813598632812	441.33642578125	-270.2880859375	1001.255126953125	225.0065307617188	-174.870361328125	543.9722900390625	233.8878021240234	-225.3462219238281	666.9534912109375	166.5016632080078	-237.3411407470703	57.86870956420898	114.2218399047852	-218.1421051025391	309.1722106933594	146.4520263671875	-83.32431030273438	56.14129638671875	278.8033752441406	-142.6395568847656	58.70222854614258	263.8399963378906	-121.3255310058594	60.79489517211914	159.7852020263672	-322.7603454589844	58.77824401855469	123.8961944580078	-456.4503479003906	501.2869567871094	361.8214416503906	-455.5339050292969	762.0770874023438	447.1034851074219	-576.4203491210938	45.24816513061523	213.0796661376953	-482.9595031738281	381.6336975097656	327.83447265625	-346.2217102050781	41.91484832763672	263.5739135742188	-392.6200561523438	48.42238235473633	212.3135528564453	-448.9379577636719	40.73371887207031	291.2328491210938	-611.0151977539062	51.79899597167969	150.8805389404297	
